<?xml version="1.0" standalone="no"?>
<svg version="1.0" xmlns="http://www.w3.org/2000/svg"
 width="416.000000pt" height="416.000000pt" viewBox="0 0 416.000000 416.000000"
 preserveAspectRatio="xMidYMid meet">

<g transform="translate(0.000000,416.000000) scale(0.100000,-0.100000)"
fill="#000000" stroke="none">
<path d="M2030 3418 c-51 -14 -100 -55 -121 -102 -18 -39 -19 -78 -19 -711 l0
-670 -257 257 c-142 141 -271 262 -286 268 -73 27 -170 -8 -201 -74 -24 -50
-21 -116 7 -157 13 -19 210 -220 437 -447 451 -450 445 -445 533 -422 37 10
91 61 440 408 219 219 413 415 430 436 40 50 49 132 19 186 -35 65 -126 97
-199 70 -15 -6 -144 -127 -285 -268 l-258 -257 0 670 c0 633 -1 672 -19 711
-22 49 -70 88 -126 103 -46 13 -48 13 -95 -1z"/>
<path d="M715 1381 c-68 -42 -70 -46 -73 -237 -3 -167 -2 -177 21 -227 44 -97
129 -159 243 -177 82 -14 2284 -13 2355 0 111 21 193 83 236 177 23 50 24 60
21 227 -3 170 -4 175 -28 201 -36 39 -73 55 -125 55 -58 0 -109 -23 -137 -63
-17 -24 -23 -51 -28 -122 -7 -107 -28 -146 -94 -176 -39 -18 -87 -19 -1026
-19 -939 0 -987 1 -1026 19 -66 30 -87 69 -94 176 -7 104 -25 141 -84 169 -46
22 -123 21 -161 -3z"/>
</g>
</svg>
